Coordinates
version=1
nRows=17
nColumns=40
inDegrees=yes

Units are S.I. units (second, meters, Newtons, ...)
Angles are in degrees.

endheader
time	pelvis_tilt	pelvis_list	pelvis_rotation	pelvis_tx	pelvis_ty	pelvis_tz	hip_flexion_r	hip_adduction_r	hip_rotation_r	knee_angle_r	knee_angle_r_beta	ankle_angle_r	subtalar_angle_r	mtp_angle_r	hip_flexion_l	hip_adduction_l	hip_rotation_l	knee_angle_l	knee_angle_l_beta	ankle_angle_l	subtalar_angle_l	mtp_angle_l	lumbar_extension	lumbar_bending	lumbar_rotation	arm_flex_r	arm_add_r	arm_rot_r	elbow_flex_r	pro_sup_r	wrist_flex_r	wrist_dev_r	arm_flex_l	arm_add_l	arm_rot_l	elbow_flex_l	pro_sup_l	wrist_flex_l	wrist_dev_l
      2.99750000	     -5.16926249	     -4.34457126	      3.15131142	      0.78107191	      0.92014330	      0.46187469	      1.17726345	     -0.22912440	    -13.90263548	     23.85225740	     23.85225740	     17.00978880	     -1.45120760	     -6.92394770	     27.41518170	     -4.02293899	      0.82830860	     26.46619912	     26.46619912	      7.40696026	    -14.65115927	      4.34922732	     -7.01625145	      4.19872934	      2.66442265	     23.90894558	    -10.71755148	      4.59179685	     66.04057080	     45.14089487	      0.00000000	      0.00000000	     -3.80914807	     -9.93145042	     -0.61313777	     36.36333241	     45.18708520	      0.00000000	      0.00000000
      3.01057143	     -5.07544185	     -4.15045038	      2.96041514	      0.78215915	      0.92107682	      0.45918245	      1.90849654	     -0.98037738	    -13.63696198	     26.31227770	     26.31227770	     16.41200934	     -2.14918578	     -7.62001793	     26.66949889	     -3.77828374	      0.46399278	     26.42485588	     26.42485588	      7.95989950	    -14.48623043	      4.19328479	     -7.10219448	      4.04482949	      2.76234353	     22.69102355	    -11.07178706	      4.78843919	     65.02862665	     45.16433041	      0.00000000	      0.00000000	     -3.15329843	     -9.99321534	     -0.65585316	     36.93037156	     45.20872792	      0.00000000	      0.00000000
      3.02364286	     -5.11059979	     -4.00600127	      2.76538411	      0.78309090	      0.92172972	      0.45663087	      2.95721990	     -1.67296649	    -13.23017386	     29.01589710	     29.01589710	     15.50385686	     -3.18399710	     -8.59511809	     26.05527838	     -3.57753853	      0.13362629	     26.33475218	     26.33475218	      8.49559764	    -14.28548935	      4.03274864	     -7.00279966	      3.92899818	      2.90285660	     21.40824435	    -11.44400344	      5.01700086	     63.52764382	     45.20324396	      0.00000000	      0.00000000	     -2.54189208	    -10.07886230	     -0.66445947	     37.63139426	     45.22771639	      0.00000000	      0.00000000
      3.03671429	     -5.01268367	     -3.83437118	      2.62062962	      0.78393814	      0.92242465	      0.45402768	      3.99984265	     -2.39917220	    -12.82507405	     31.93049119	     31.93049119	     14.43784713	     -4.31913672	     -9.44168419	     25.32251661	     -3.34839707	     -0.23917415	     26.26315180	     26.26315180	      8.95458409	    -14.06169031	      3.85137378	     -7.07677903	      3.83724403	      2.87217708	     20.18790474	    -11.71938204	      5.21400019	     62.10501965	     45.24022861	      0.00000000	      0.00000000	     -1.87576954	    -10.22080628	     -0.67769623	     38.30846299	     45.24567260	      0.00000000	      0.00000000
      3.04978571	     -5.07240204	     -3.68513335	      2.40077585	      0.78453010	      0.92277361	      0.45169144	      5.44556074	     -3.07235921	    -12.21187308	     35.12970694	     35.12970694	     13.03673224	     -5.87610097	    -10.47544576	     24.75598506	     -3.17252216	     -0.65309266	     26.15394459	     26.15394459	      9.41536033	    -13.78586741	      3.63271414	     -6.94908020	      3.68560270	      2.94294200	     18.90406421	    -12.03854009	      5.42607029	     60.20552437	     45.29296083	      0.00000000	      0.00000000	     -1.29423140	    -10.39483206	     -0.66129153	     39.20903999	     45.26186059	      0.00000000	      0.00000000
      3.06285714	     -5.03462359	     -3.55813888	      2.24914433	      0.78495548	      0.92315873	      0.44925257	      6.87262436	     -3.68997263	    -11.59607553	     38.38791269	     38.38791269	     11.41559287	     -7.53921872	    -11.31186935	     24.13248762	     -2.98977193	     -0.99817961	     26.09021972	     26.09021972	      9.85558525	    -13.51426466	      3.40069347	     -6.99759181	      3.67540814	      2.85817701	     17.66658593	    -12.26124975	      5.61813901	     58.30952562	     45.34629044	      0.00000000	      0.00000000	     -0.70383717	    -10.61800349	     -0.62598317	     40.16762000	     45.27658722	      0.00000000	      0.00000000
      3.07592857	     -4.98266738	     -3.56206714	      2.11346234	      0.78522213	      0.92352065	      0.44709430	      8.25863984	     -4.00603355	    -10.83655195	     41.30791749	     41.30791749	      8.41266423	    -10.48419183	    -14.89081431	     23.55402827	     -2.97659417	     -1.34915043	     26.08923052	     26.08923052	     10.32121765	    -13.14672720	      3.08912565	     -6.98564192	      3.73786349	      1.85285348	     17.91084828	    -11.60946620	      6.20248693	     52.99073378	     45.50748299	      0.00000000	      0.00000000	     -1.35128557	    -11.39741604	      0.11363870	     43.20346379	     45.27642228	      0.00000000	      0.00000000
      3.08900000	     -4.85210518	     -3.39151294	      1.98116427	      0.78522760	      0.92388717	      0.44471941	      9.81615344	     -4.69372842	    -10.36461205	     44.75768520	     44.75768520	      6.80763019	    -11.77391296	    -14.67526499	     22.86661089	     -2.72898037	     -1.64503762	     26.02049731	     26.02049731	     10.67881162	    -12.99047708	      2.92339785	     -7.23085211	      3.72224381	      1.69597073	     16.42207118	    -11.94229291	      6.34773869	     51.97938583	     45.52883582	      0.00000000	      0.00000000	     -0.51120153	    -11.64177902	     -0.02607294	     43.79086340	     45.31040298	      0.00000000	      0.00000000
      3.10207143	     -4.85828626	     -3.42166544	      1.74957899	      0.78499210	      0.92405468	      0.44284948	     11.66213478	     -4.87305622	     -9.43746669	     48.17263762	     48.17263762	      5.33321017	    -13.74007880	    -12.97964614	     22.38109240	     -2.75229490	     -1.96291965	     26.02607311	     26.02607311	     11.14625315	    -12.75580337	      2.64753391	     -7.27663108	      3.83456477	      1.85831794	     15.14684965	    -12.25140458	      6.37622014	     49.39950597	     45.60960470	      0.00000000	      0.00000000	      0.14696388	    -11.90886352	      0.12426141	     45.30916182	     45.34656146	      0.00000000	      0.00000000
      3.11514286	     -4.74719646	     -3.24772775	      1.62370987	      0.78460083	      0.92437795	      0.44071581	     13.33517746	     -5.48441790	     -9.00563160	     51.40094573	     51.40094573	      3.78580481	    -14.86367008	    -12.36534469	     21.72341424	     -2.48640563	     -2.18233045	     25.91841093	     25.91841093	     11.52639089	    -12.64429161	      2.49986063	     -7.52979571	      3.77623419	      1.53238098	     13.65011321	    -12.50204570	      6.45858801	     48.30770145	     45.63632721	      0.00000000	      0.00000000	      1.02882729	    -12.22833155	      0.01632090	     45.95574736	     45.37728283	      0.00000000	      0.00000000
      3.12821429	     -4.76455760	     -3.31330830	      1.36741344	      0.78397710	      0.92464438	      0.43913255	     15.35932125	     -5.55137070	     -8.19648768	     54.75549727	     54.75549727	      3.91166164	    -15.44629045	     -6.62766138	     21.23117102	     -2.55478313	     -2.50497652	     25.82789656	     25.82789656	     11.91384785	    -12.43357020	      2.32194091	     -7.58452387	      3.98117150	      1.36357998	     12.97613153	    -12.26809241	      5.88805423	     44.14526636	     45.79973631	      0.00000000	      0.00000000	      1.27805290	    -12.84232912	      0.78127925	     48.22108407	     45.39237131	      0.00000000	      0.00000000
      3.14128571	     -4.73052448	     -3.23067865	      1.12356822	      0.78325411	      0.92500006	      0.43750351	     17.13032855	     -5.88125788	     -7.65842909	     57.44935212	     57.44935212	      2.68557696	    -16.48559464	     -5.86515356	     20.63005569	     -2.41526129	     -2.73209047	     25.63755813	     25.63755813	     12.23942781	    -12.44094737	      2.25292896	     -7.78042398	      4.03097602	      1.38069767	     11.28646011	    -12.65352859	      5.93895320	     42.98469332	     45.82776176	      0.00000000	      0.00000000	      2.26599718	    -13.03552780	      0.59037838	     48.98006440	     45.43709396	      0.00000000	      0.00000000
      3.15435714	     -4.68358946	     -3.20684124	      0.87442002	      0.78239941	      0.92547916	      0.43609986	     18.84448855	     -6.08644723	     -7.17458640	     59.80238912	     59.80238912	      1.84541793	    -17.33180823	     -4.72499938	     20.01337684	     -2.35109056	     -2.95558509	     25.41463346	     25.41463346	     12.54806407	    -12.39906245	      2.18012457	     -8.00932507	      4.14523901	      1.47751040	      9.59074530	    -13.03394043	      5.92786581	     41.53614514	     45.87007816	      0.00000000	      0.00000000	      3.30532091	    -13.24659576	      0.45308228	     49.94042247	     45.47931976	      0.00000000	      0.00000000
      3.16742857	     -4.65061948	     -3.21711300	      0.58744921	      0.78149334	      0.92603104	      0.43491763	     20.53615924	     -6.21224827	     -6.72882265	     61.80942674	     61.80942674	      1.48271015	    -17.81399875	     -3.15699283	     19.36173314	     -2.33896437	     -3.21028196	     25.10977817	     25.10977817	     12.86645147	    -12.33920116	      2.10060427	     -8.22439526	      4.28339942	      1.66469551	      7.93937555	    -13.36588328	      5.82570312	     39.79294385	     45.92856511	      0.00000000	      0.00000000	      4.31504818	    -13.42321561	      0.39302845	     51.11826972	     45.51825910	      0.00000000	      0.00000000
      3.18050000	     -4.53866071	     -3.38470756	      0.36723079	      0.78049882	      0.92681304	      0.43411342	     22.19381594	     -6.02229009	     -6.30562110	     63.67137838	     63.67137838	      2.82666537	    -17.57052319	      2.81355419	     18.66068225	     -2.51945228	     -3.40770734	     24.82498785	     24.82498785	     13.08338157	    -12.17386399	      1.81481997	     -8.52829872	      4.55978801	      1.26574371	      7.35128229	    -12.94562180	      4.48968170	     35.81925454	     46.13694673	      0.00000000	      0.00000000	      4.67185895	    -14.24627646	      0.99980119	     53.28934502	     45.56018073	      0.00000000	      0.00000000
      3.19357143	     -4.52500025	     -3.40771394	      0.06876757	      0.77949145	      0.92750316	      0.43337626	     23.71494886	     -6.05009293	     -5.96716625	     64.74411243	     64.74411243	      2.57736831	    -17.89184205	      3.03405669	     17.96161126	     -2.53516281	     -3.66746952	     24.37226065	     24.37226065	     13.33308571	    -12.06392237	      1.79453041	     -8.72645284	      4.69060253	      1.29051968	      5.62774552	    -13.25929446	      4.37445290	     34.66045779	     46.17316542	      0.00000000	      0.00000000	      5.67528879	    -14.44531052	      0.69675276	     54.18837617	     45.61725999	      0.00000000	      0.00000000
      3.20664286	     -4.45546844	     -3.55321471	     -0.21006770	      0.77847074	      0.92834325	      0.43297663	     25.09190497	     -5.86490652	     -5.68978151	     65.39164242	     65.39164242	      2.87533465	    -17.94268424	      4.42713987	     17.21408156	     -2.71295517	     -3.92588635	     23.93256415	     23.93256415	     13.47287286	    -11.90669031	      1.45236465	     -9.02307952	      4.92039708	      1.16187344	      4.50539147	    -13.11574775	      3.04955692	     31.94783943	     46.33680580	      0.00000000	      0.00000000	      6.24972055	    -14.91633975	      0.48461778	     56.15427976	     45.73695088	      0.00000000	      0.00000000
